<?xml version="1.0" encoding="UTF-8" standalone="no"?>
<svg
   xmlns:dc="http://purl.org/dc/elements/1.1/"
   xmlns:cc="http://creativecommons.org/ns#"
   xmlns:rdf="http://www.w3.org/1999/02/22-rdf-syntax-ns#"
   xmlns:svg="http://www.w3.org/2000/svg"
   xmlns="http://www.w3.org/2000/svg"
   xmlns:sodipodi="http://sodipodi.sourceforge.net/DTD/sodipodi-0.dtd"
   xmlns:inkscape="http://www.inkscape.org/namespaces/inkscape"
   width="24"
   height="24"
   viewBox="0 0 24 24"
   version="1.1"
   id="svg835"
   sodipodi:docname="githubLogo.svg"
   inkscape:version="1.0.2 (e86c8708, 2021-01-15)">
  <metadata
     id="metadata841">
    <rdf:RDF>
      <cc:Work
         rdf:about="">
        <dc:format>image/svg+xml</dc:format>
        <dc:type
           rdf:resource="http://purl.org/dc/dcmitype/StillImage" />
      </cc:Work>
    </rdf:RDF>
  </metadata>
  <defs
     id="defs839" />
  <sodipodi:namedview
     pagecolor="#ffffff"
     bordercolor="#666666"
     borderopacity="1"
     objecttolerance="10"
     gridtolerance="10"
     guidetolerance="10"
     inkscape:pageopacity="0"
     inkscape:pageshadow="2"
     inkscape:window-width="1440"
     inkscape:window-height="900"
     id="namedview837"
     showgrid="false"
     inkscape:zoom="15.941619"
     inkscape:cx="10.5573"
     inkscape:cy="12.066173"
     inkscape:window-x="0"
     inkscape:window-y="0"
     inkscape:window-maximized="0"
     inkscape:current-layer="svg835" />
  <rect
     style="fill:#ffffff;fill-opacity:1;stroke:#000000;stroke-width:0;stroke-linecap:round;stroke-linejoin:round;stroke-miterlimit:4;stroke-dasharray:none;paint-order:stroke markers fill"
     id="rect847"
     width="16.058594"
     height="15.68222"
     x="4.1401062"
     y="3.9519198" />
  <path
     d="M12 0c-6.627 0-12 5.373-12 12s5.373 12 12 12 12-5.373 12-12-5.373-12-12-12zm2.218 18.616c-.354.069-.468-.149-.468-.336v-1.921c0-.653-.229-1.079-.481-1.296 1.56-.173 3.198-.765 3.198-3.454 0-.765-.273-1.389-.721-1.879.072-.177.312-.889-.069-1.853 0 0-.587-.188-1.923.717-.561-.154-1.159-.231-1.754-.234-.595.003-1.193.08-1.753.235-1.337-.905-1.925-.717-1.925-.717-.379.964-.14 1.676-.067 1.852-.448.49-.722 1.114-.722 1.879 0 2.682 1.634 3.282 3.189 3.459-.2.175-.381.483-.444.936-.4.179-1.413.488-2.037-.582 0 0-.37-.672-1.073-.722 0 0-.683-.009-.048.426 0 0 .46.215.777 1.024 0 0 .405 1.25 2.353.826v1.303c0 .185-.113.402-.462.337-2.782-.925-4.788-3.549-4.788-6.641 0-3.867 3.135-7 7-7s7 3.133 7 7c0 3.091-2.003 5.715-4.782 6.641z"
     id="path833" />
</svg>
